{"title":"Hero.Corp.S02.DVDRip.XviD.MP3","uid":8233909,"size":3679183655,"categoryP":"video","categoryS":"tv_shows","magnet":"?xt=urn:btih:cf7ef27c259ebda242f91dd1122b02332734fada&amp;dn=Hero.Corp.S02.DVDRip.XviD.MP3&amp;tr=udp%3A%2F%2Ftracker.openbittorrent.com%3A80&amp;tr=udp%3A%2F%2Fopen.demonii.com%3A1337&amp;tr=udp%3A%2F%2Ftracker.coppersurfer.tk%3A6969&amp;tr=udp%3A%2F%2Fexodus.desync.com%3A6969","seeders":0,"leechers":1,"uploader":"madmox52","files":16,"time":1362797372,"description":"Hero Corp - Season 2 (french TV show)\n\nThis is DVD Rip, not TV Rip!\n\nMKV container (XviD/MP3), remuxed from private AVI release, without re-encoding, using MKVmerge.\n\nFRENCH LANGUAGE, NO SUBTITLES\n\n---------------------------------------\n\nGeneral\nUnique ID                                : 207563659134591680179637490260712651167 (0x9C274E80930B6259A09DA6A1FC78799F)\nComplete name                            : Hero.Corp.S02E01.352p.DVDrip.XviD.MP3.mkv\nFormat                                   : Matroska\nFormat version                           : Version 4 / Version 2\nFile size                                : 233 MiB\nDuration                                 : 22mn 42s\nOverall bit rate mode                    : Variable\nOverall bit rate                         : 1 435 Kbps\nEncoded date                             : UTC 2013-03-03 21:43:44\nWriting application                      : mkvmerge v6.1.0 ('Old Devil') built on Mar  2 2013 14:32:37\nWriting library                          : libebml v1.3.0 + libmatroska v1.4.0\n\nVideo\nID                                       : 1\nFormat                                   : MPEG-4 Visual\nFormat profile                           : Advanced Simple@L5\nFormat settings, BVOP                    : Yes\nFormat settings, QPel                    : No\nFormat settings, GMC                     : No warppoints\nFormat settings, Matrix                  : Default (H.263)\nCodec ID                                 : V_MS/VFW/FOURCC / XVID\nCodec ID/Hint                            : XviD\nDuration                                 : 22mn 42s\nBit rate                                 : 1 279 Kbps\nWidth                                    : 640 pixels\nHeight                                   : 352 pixels\nDisplay aspect ratio                     : 16:9\nFrame rate mode                          : Constant\nFrame rate                               : 25.000 fps\nColor space                              : YUV\nChroma subsampling                       : 4:2:0\nBit depth                                : 8 bits\nScan type                                : Progressive\nCompression mode                         : Lossy\nBits/(Pixel*Frame)                       : 0.227\nStream size                              : 208 MiB (89%)\nWriting library                          : XviD 1.3.0.dev55\nLanguage                                 : French\nDefault                                  : Yes\nForced                                   : No\n\nAudio\nID                                       : 2\nFormat                                   : MPEG Audio\nFormat version                           : Version 1\nFormat profile                           : Layer 3\nMode                                     : Joint stereo\nMode extension                           : MS Stereo\nCodec ID                                 : A_MPEG/L3\nCodec ID/Hint                            : MP3\nDuration                                 : 22mn 51s\nBit rate mode                            : Variable\nBit rate                                 : 128 Kbps\nChannel(s)                               : 2 channels\nSampling rate                            : 48.0 KHz\nCompression mode                         : Lossy\nStream size                              : 20.9 MiB (9%)\nWriting library                          : LAME3.90.\nEncoding settings                        : -m j -V 4 -q 2 -lowpass 17.6 --abr 128\nLanguage                                 : French\nDefault                                  : Yes\nForced                                   : No\n\n","torrent":{"xt":"urn:btih:cf7ef27c259ebda242f91dd1122b02332734fada","amp;dn":"Hero.Corp.S02.DVDRip.XviD.MP3","amp;tr":["udp%3A%2F%2Ftracker.openbittorrent.com%3A80","udp%3A%2F%2Fopen.demonii.com%3A1337","udp%3A%2F%2Ftracker.coppersurfer.tk%3A6969","udp%3A%2F%2Fexodus.desync.com%3A6969"],"infoHash":"cf7ef27c259ebda242f91dd1122b02332734fada","infoHashBuffer":{"type":"Buffer","data":[207,126,242,124,37,158,189,162,66,249,29,209,18,43,2,51,39,52,250,218]},"announce":[],"urlList":[]}}